# xmcd
#
# Track frame offsets: 
#        150
#        12909
#        29996
#        44291
#        54395
#        69967
#        82207
#        92805
#        108151
#        124312
#        138942
#
# Disc length: 2012 seconds
#
# Revision: 0
# Processed by: cddbd v1.5.2PL0 Copyright (c) Steve Scherf et al.
# Submitted via: ExactAudioCopyFreeDBPlugin 1.0
#
DISCID=9607da0b
DTITLE=Glen Campbell - 1978 - Basic
DYEAR=1978
DGENRE=
TTITLE0=(You've Got to) Sing It Nice and Loud for Me Sonny
TTITLE1=Stranger in the Mirror
TTITLE2=Can You Fool
TTITLE3=I See Love
TTITLE4=(When I Feel Like) I Got No Love in Me
TTITLE5=Love Takes You Higher
TTITLE6=Never Tell You No Lies
TTITLE7=I'm Gonna Love You
TTITLE8=California
TTITLE9=Let's All Sing a Song About It
TTITLE10=Grafhaidh Me Thu
EXTD=
EXTT0=
EXTT1=
EXTT2=
EXTT3=
EXTT4=
EXTT5=
EXTT6=
EXTT7=
EXTT8=
EXTT9=
EXTT10=
PLAYORDER=
